<svg xmlns="http://www.w3.org/2000/svg" width="512" height="512" viewBox="0 0 512 512">
  <defs>
    <linearGradient id="soup" x1="0%" y1="0%" x2="100%" y2="0%">
      <stop offset="0%" style="stop-color:#f97316"/>
      <stop offset="50%" style="stop-color:#a855f7"/>
      <stop offset="100%" style="stop-color:#06b6d4"/>
    </linearGradient>
    <linearGradient id="bowl" x1="0%" y1="0%" x2="0%" y2="100%">
      <stop offset="0%" style="stop-color:#64748b"/>
      <stop offset="100%" style="stop-color:#334155"/>
    </linearGradient>
  </defs>
  <!-- Full background for maskable -->
  <rect width="512" height="512" fill="#0f172a"/>
  
  <!-- Content scaled to 80% safe zone -->
  <!-- Steam wisps -->
  <path d="M192 138 Q180 112, 192 86" stroke="#f97316" stroke-width="10" fill="none" stroke-linecap="round" opacity="0.8"/>
  <path d="M256 120 Q244 90, 256 61" stroke="#a855f7" stroke-width="10" fill="none" stroke-linecap="round" opacity="0.8"/>
  <path d="M320 138 Q332 112, 320 86" stroke="#06b6d4" stroke-width="10" fill="none" stroke-linecap="round" opacity="0.8"/>
  
  <!-- Bowl rim -->
  <ellipse cx="256" cy="192" rx="128" ry="32" fill="url(#bowl)"/>
  
  <!-- Soup surface -->
  <ellipse cx="256" cy="192" rx="112" ry="24" fill="url(#soup)" opacity="0.9"/>
  
  <!-- Bowl body -->
  <path d="M128 192 Q128 326, 256 342 Q384 326, 384 192" fill="url(#bowl)"/>
  
  <!-- Protocol ingredients -->
  <circle cx="198" cy="224" r="20" fill="#f97316" opacity="0.9"/>
  <circle cx="256" cy="246" r="24" fill="#a855f7" opacity="0.9"/>
  <circle cx="314" cy="218" r="16" fill="#06b6d4" opacity="0.9"/>
  <circle cx="224" cy="268" r="12" fill="#22c55e" opacity="0.8"/>
  <circle cx="288" cy="278" r="14" fill="#eab308" opacity="0.8"/>
  
  <!-- Bowl base -->
  <ellipse cx="256" cy="358" rx="56" ry="16" fill="#475569"/>
</svg>
