<svg xmlns="http://www.w3.org/2000/svg" width="512" height="512" viewBox="0 0 512 512">
  <defs>
    <linearGradient id="soup" x1="0%" y1="0%" x2="100%" y2="0%">
      <stop offset="0%" style="stop-color:#f97316"/>
      <stop offset="50%" style="stop-color:#a855f7"/>
      <stop offset="100%" style="stop-color:#06b6d4"/>
    </linearGradient>
    <linearGradient id="bowl" x1="0%" y1="0%" x2="0%" y2="100%">
      <stop offset="0%" style="stop-color:#64748b"/>
      <stop offset="100%" style="stop-color:#334155"/>
    </linearGradient>
  </defs>
  <!-- Background -->
  <rect width="512" height="512" rx="102" fill="#0f172a"/>
  
  <!-- Steam wisps -->
  <path d="M179 144 Q163 112, 179 82" stroke="#f97316" stroke-width="13" fill="none" stroke-linecap="round" opacity="0.8"/>
  <path d="M256 123 Q240 88, 256 51" stroke="#a855f7" stroke-width="13" fill="none" stroke-linecap="round" opacity="0.8"/>
  <path d="M333 144 Q349 112, 333 82" stroke="#06b6d4" stroke-width="13" fill="none" stroke-linecap="round" opacity="0.8"/>
  
  <!-- Bowl rim -->
  <ellipse cx="256" cy="215" rx="164" ry="41" fill="url(#bowl)"/>
  
  <!-- Soup surface -->
  <ellipse cx="256" cy="215" rx="143" ry="31" fill="url(#soup)" opacity="0.9"/>
  
  <!-- Bowl body -->
  <path d="M92 215 Q92 384, 256 400 Q420 384, 420 215" fill="url(#bowl)"/>
  
  <!-- Protocol ingredients -->
  <circle cx="179" cy="256" r="26" fill="#f97316" opacity="0.9"/>
  <circle cx="256" cy="282" r="31" fill="#a855f7" opacity="0.9"/>
  <circle cx="333" cy="246" r="21" fill="#06b6d4" opacity="0.9"/>
  <circle cx="215" cy="307" r="15" fill="#22c55e" opacity="0.8"/>
  <circle cx="297" cy="318" r="18" fill="#eab308" opacity="0.8"/>
  
  <!-- Bowl base -->
  <ellipse cx="256" cy="420" rx="72" ry="21" fill="#475569"/>
</svg>
