<svg xmlns="http://www.w3.org/2000/svg" viewBox="0 0 100 100">
  <defs>
    <linearGradient id="soup" x1="0%" y1="0%" x2="100%" y2="0%">
      <stop offset="0%" style="stop-color:#f97316"/>
      <stop offset="50%" style="stop-color:#a855f7"/>
      <stop offset="100%" style="stop-color:#06b6d4"/>
    </linearGradient>
    <linearGradient id="bowl" x1="0%" y1="0%" x2="0%" y2="100%">
      <stop offset="0%" style="stop-color:#64748b"/>
      <stop offset="100%" style="stop-color:#334155"/>
    </linearGradient>
  </defs>
  <!-- Background -->
  <rect width="100" height="100" rx="20" fill="#0f172a"/>
  
  <!-- Steam wisps (representing data flow) -->
  <path d="M35 28 Q32 22, 35 16" stroke="#f97316" stroke-width="2.5" fill="none" stroke-linecap="round" opacity="0.8"/>
  <path d="M50 24 Q47 17, 50 10" stroke="#a855f7" stroke-width="2.5" fill="none" stroke-linecap="round" opacity="0.8"/>
  <path d="M65 28 Q68 22, 65 16" stroke="#06b6d4" stroke-width="2.5" fill="none" stroke-linecap="round" opacity="0.8"/>
  
  <!-- Bowl rim -->
  <ellipse cx="50" cy="42" rx="32" ry="8" fill="url(#bowl)"/>
  
  <!-- Soup surface with gradient -->
  <ellipse cx="50" cy="42" rx="28" ry="6" fill="url(#soup)" opacity="0.9"/>
  
  <!-- Bowl body -->
  <path d="M18 42 Q18 75, 50 78 Q82 75, 82 42" fill="url(#bowl)"/>
  
  <!-- Protocol "ingredients" floating in soup -->
  <circle cx="35" cy="50" r="5" fill="#f97316" opacity="0.9"/>
  <circle cx="50" cy="55" r="6" fill="#a855f7" opacity="0.9"/>
  <circle cx="65" cy="48" r="4" fill="#06b6d4" opacity="0.9"/>
  <circle cx="42" cy="60" r="3" fill="#22c55e" opacity="0.8"/>
  <circle cx="58" cy="62" r="3.5" fill="#eab308" opacity="0.8"/>
  
  <!-- Bowl base -->
  <ellipse cx="50" cy="82" rx="14" ry="4" fill="#475569"/>
</svg>
